<svg width="64" height="64" viewBox="0 0 64 64" fill="none" xmlns="http://www.w3.org/2000/svg">
<circle cx="32" cy="32" r="32" fill="#A8E001"/>
<path fill-rule="evenodd" clip-rule="evenodd" d="M32 64C49.6731 64 64 49.6731 64 32C64 14.3269 49.6731 0 32 0C14.3269 0 0 14.3269 0 32C0 49.6731 14.3269 64 32 64ZM36.5822 9.25175C41.3118 13.9813 39.1817 23.7795 31.8246 31.1365C24.4675 38.4936 14.6694 40.6237 9.93984 35.8941C5.21028 31.1646 7.34032 21.3664 14.6974 14.0093C22.0545 6.65223 31.8526 4.52219 36.5822 9.25175ZM54.7485 27.4177C59.478 32.1473 57.348 41.9454 49.9909 49.3025C42.6338 56.6596 32.8357 58.7896 28.1061 54.0601C23.3766 49.3305 25.5066 39.5324 32.8637 32.1753C40.2208 24.8182 50.0189 22.6882 54.7485 27.4177Z" fill="#264311"/>
</svg>
